<?xml version="1.0" encoding="UTF-8" standalone="no"?>
<!-- Created with Inkscape (http://www.inkscape.org/) -->

<svg
   width="134.13428"
   height="186.76474"
   viewBox="0 0 35.489695 49.414838"
   version="1.1"
   id="svg5"
   inkscape:version="1.2.1 (9c6d41e410, 2022-07-14)"
   sodipodi:docname="angry_farmer.svg"
   inkscape:export-filename="bastion_back.png"
   inkscape:export-xdpi="96"
   inkscape:export-ydpi="96"
   xmlns:inkscape="http://www.inkscape.org/namespaces/inkscape"
   xmlns:sodipodi="http://sodipodi.sourceforge.net/DTD/sodipodi-0.dtd"
   xmlns="http://www.w3.org/2000/svg"
   xmlns:svg="http://www.w3.org/2000/svg">
  <sodipodi:namedview
     id="namedview7"
     pagecolor="#ffffff"
     bordercolor="#000000"
     borderopacity="0.25"
     inkscape:showpageshadow="2"
     inkscape:pageopacity="0"
     inkscape:pagecheckerboard="false"
     inkscape:deskcolor="#d1d1d1"
     inkscape:document-units="px"
     showgrid="false"
     inkscape:zoom="1.2938725"
     inkscape:cx="-2.318621"
     inkscape:cy="11.206668"
     inkscape:window-width="2560"
     inkscape:window-height="1361"
     inkscape:window-x="-9"
     inkscape:window-y="-9"
     inkscape:window-maximized="1"
     inkscape:current-layer="layer1" />
  <defs
     id="defs2" />
  <g
     inkscape:label="front"
     inkscape:groupmode="layer"
     id="layer1"
     style="display:inline"
     transform="translate(-134.89898,-156.10579)">
    <path
       style="fill:#4ad4d4;fill-opacity:1;stroke:#2a676a;stroke-width:1.32291669;stroke-linecap:round;stroke-linejoin:round;stroke-dasharray:none;stroke-opacity:1;paint-order:fill markers stroke"
       d="m 145.53382,185.66345 c -1.48255,10.48009 -6.5948,14.82549 -6.5948,14.82549 0,0 3.78306,4.75438 12.52499,4.3454 8.74193,-0.40898 12.7806,-4.3454 12.7806,-4.3454 0,0 -4.19204,-6.08356 -4.14092,-17.126"
       id="path20093"
       sodipodi:nodetypes="ccscc" />
    <g
       id="g20103"
       style="fill:#4ad4d4;fill-opacity:1;stroke:#2a676a;stroke-opacity:1;stroke-width:1.32291669;stroke-dasharray:none"
       transform="rotate(6.6925594,133.83832,186.62152)">
      <path
         style="fill:#4ad4d4;fill-opacity:1;stroke:#2a676a;stroke-width:1.32291669;stroke-linecap:round;stroke-linejoin:round;stroke-dasharray:none;stroke-opacity:1;paint-order:fill markers stroke"
         d="m 149.16351,185.91906 c -2.40275,6.3903 -2.14714,5.52122 -2.14714,5.52122 l 9.96887,0.15337 -2.91398,-6.23694"
         id="path20099"
         sodipodi:nodetypes="cccc" />
      <path
         style="fill:#4ad4d4;fill-opacity:1;stroke:#2a676a;stroke-width:1.32291669;stroke-linecap:round;stroke-linejoin:round;stroke-dasharray:none;stroke-opacity:1;paint-order:fill markers stroke"
         d="m 147.11861,193.02508 c -1.65943,-4.32768 7.71948,-6.13469 9.81549,-1.53367 2.09602,4.60102 -8.15605,5.86134 -9.81549,1.53367 z"
         id="path20095"
         sodipodi:nodetypes="zzz" />
    </g>
    <path
       style="fill:#c6c6c6;fill-opacity:1;stroke:#8f8f8f;stroke-width:1.32291669;stroke-linecap:round;stroke-linejoin:round;stroke-dasharray:none;stroke-opacity:1;paint-order:fill markers stroke"
       d="m 163.989,181.52254 c 1.94265,10.07111 -3.98755,13.85416 -3.98755,13.85416 0,0 0.46011,-5.62346 -3.83417,-10.83794"
       id="path20091"
       sodipodi:nodetypes="ccc" />
    <path
       style="fill:#4ad4d4;fill-opacity:1;stroke:#2a676a;stroke-width:1.32291669;stroke-linecap:round;stroke-linejoin:round;stroke-dasharray:none;stroke-opacity:1;paint-order:fill markers stroke"
       d="m 135.87169,183.20958 c 3.75476,8.15049 39.39722,-1.15139 33.1273,-9.91774 -6.26992,-8.76634 -36.88205,1.76725 -33.1273,9.91774 z"
       id="path19361"
       sodipodi:nodetypes="zzz" />
    <path
       style="fill:#4ad4d4;fill-opacity:1;stroke:#2a676a;stroke-width:1.32291669;stroke-linecap:round;stroke-linejoin:round;stroke-dasharray:none;stroke-opacity:1;paint-order:fill markers stroke"
       d="m 162.09746,174.21204 c -8.23289,-15.71147 -7.69991,-17.89916 -11.40028,-17.38161 -1.77546,0.24833 -8.52412,3.1315 -11.75815,5.4701 -3.23402,2.3386 7.5708,-0.20743 7.36162,2.55612 -0.20918,2.76355 -2.40275,14.46763 -2.40275,14.46763"
       id="path19263"
       sodipodi:nodetypes="cszzc" />
  </g>
  <g
     inkscape:groupmode="layer"
     id="layer4"
     inkscape:label="back"
     style="display:inline"
     transform="translate(-134.89898,-156.10579)" />
</svg>
